<svg width="20" height="20" viewBox="0 0 20 20" fill="none" xmlns="http://www.w3.org/2000/svg">
<path d="M17.375 6.26655C16.8459 6.5027 16.2782 6.66284 15.6818 6.73434C16.2908 6.36699 16.757 5.78431 16.9779 5.09214C16.4067 5.43234 15.7761 5.67936 15.1041 5.81327C14.5661 5.23511 13.8008 4.875 12.9519 4.875C11.3233 4.875 10.0029 6.20504 10.0029 7.84452C10.0029 8.07704 10.0289 8.30414 10.0792 8.52131C7.62876 8.39734 5.45585 7.21479 4.00155 5.41786C3.74734 5.85579 3.60272 6.36606 3.60272 6.91077C3.60272 7.94133 4.12372 8.85064 4.9142 9.38264C4.43093 9.36636 3.9764 9.23245 3.57848 9.00987V9.04697C3.57848 10.4856 4.59532 11.6862 5.94362 11.9595C5.69659 12.0264 5.4361 12.0635 5.16661 12.0635C4.97619 12.0635 4.79204 12.0445 4.61148 12.0083C4.98695 13.1891 6.07567 14.0477 7.36559 14.0713C6.35683 14.8675 5.08487 15.3407 3.70334 15.3407C3.46531 15.3407 3.23085 15.3262 3 15.3C4.30519 16.1442 5.85471 16.6364 7.5201 16.6364C12.9447 16.6364 15.9099 12.1106 15.9099 8.18563L15.9001 7.8011C16.4794 7.38487 16.9806 6.86191 17.375 6.26655Z" fill="#014170"/>
</svg>
