<svg width="23" height="20" viewBox="0 0 23 20" fill="none" xmlns="http://www.w3.org/2000/svg">
<g clip-path="url(#clip0)">
<path d="M20.2392 14.6803C20.218 14.6345 20.1983 14.5966 20.1799 14.5662C19.8763 14.0185 19.2961 13.3463 18.4396 12.5493L18.4215 12.531L18.4125 12.5221L18.4033 12.5129H18.3941C18.0054 12.1418 17.7593 11.8922 17.6562 11.7645C17.4676 11.5211 17.4253 11.2748 17.5284 11.0252C17.6012 10.8366 17.8748 10.4383 18.3484 9.82987C18.5976 9.5074 18.7949 9.24894 18.9406 9.05423C19.9916 7.65489 20.4472 6.7607 20.3074 6.3713L20.2531 6.2803C20.2167 6.22551 20.1225 6.17539 19.9708 6.12969C19.8188 6.08408 19.6245 6.07653 19.3875 6.10693L16.7635 6.12508C16.721 6.11 16.6603 6.1114 16.5812 6.12969C16.5022 6.14797 16.4627 6.15714 16.4627 6.15714L16.417 6.18L16.3808 6.20745C16.3504 6.22561 16.317 6.25754 16.2805 6.30318C16.2442 6.34867 16.2139 6.40204 16.1896 6.46287C15.9039 7.19901 15.5791 7.88343 15.2146 8.5161C14.9898 8.89336 14.7834 9.22031 14.5949 9.49714C14.4066 9.77387 14.2487 9.97776 14.1212 10.1085C13.9935 10.2393 13.8783 10.3441 13.7749 10.4233C13.6716 10.5025 13.5927 10.5359 13.5381 10.5237C13.4834 10.5114 13.4318 10.4993 13.383 10.4872C13.2981 10.4324 13.2297 10.3579 13.1782 10.2636C13.1264 10.1693 13.0915 10.0506 13.0733 9.90763C13.0552 9.76457 13.0445 9.64151 13.0414 9.53805C13.0386 9.43471 13.0399 9.28855 13.046 9.09997C13.0524 8.91129 13.0552 8.78363 13.0552 8.7167C13.0552 8.48548 13.0597 8.23454 13.0687 7.96381C13.0779 7.69309 13.0854 7.47858 13.0916 7.32056C13.0978 7.16238 13.1006 6.99502 13.1006 6.81858C13.1006 6.64215 13.0899 6.50378 13.0687 6.40335C13.0478 6.30305 13.0157 6.2057 12.9733 6.11131C12.9307 6.01702 12.8683 5.94408 12.7865 5.8923C12.7045 5.84058 12.6026 5.79954 12.4813 5.76905C12.1593 5.69608 11.7493 5.65661 11.2511 5.65047C10.1214 5.63832 9.39543 5.71139 9.07349 5.86957C8.94593 5.93641 8.8305 6.02773 8.7273 6.14324C8.61793 6.27713 8.60267 6.3502 8.68163 6.36222C9.04614 6.41691 9.30419 6.54773 9.45607 6.75456L9.5108 6.86416C9.55337 6.94324 9.59588 7.08324 9.63842 7.28396C9.6809 7.48469 9.70831 7.70674 9.72038 7.94997C9.75069 8.39416 9.75069 8.77439 9.72038 9.0907C9.68996 9.40713 9.66124 9.65347 9.63383 9.8299C9.60641 10.0063 9.56544 10.1493 9.5108 10.2588C9.45607 10.3683 9.41966 10.4352 9.4014 10.4595C9.38318 10.4838 9.36799 10.4991 9.35593 10.5051C9.27697 10.5354 9.19486 10.5509 9.10987 10.5509C9.02476 10.5509 8.92155 10.5082 8.80009 10.423C8.67866 10.3378 8.55263 10.2207 8.42201 10.0717C8.29139 9.92256 8.14408 9.7142 7.98001 9.44654C7.81607 9.17888 7.64597 8.86255 7.46981 8.49753L7.32406 8.23281C7.23295 8.06251 7.10849 7.81455 6.95055 7.48913C6.79251 7.16359 6.65283 6.84869 6.5314 6.5445C6.48286 6.41675 6.40994 6.31948 6.31276 6.25255L6.26716 6.2251C6.23684 6.20081 6.18817 6.17501 6.12141 6.14752C6.05455 6.12007 5.98479 6.10038 5.91183 6.08826L3.41528 6.10642C3.16016 6.10642 2.98707 6.1643 2.89592 6.27991L2.85944 6.3346C2.84122 6.36506 2.83203 6.41371 2.83203 6.48067C2.83203 6.5476 2.85025 6.62975 2.88673 6.72701C3.25118 7.58489 3.64751 8.41225 4.07573 9.20921C4.50394 10.0062 4.87605 10.6482 5.19183 11.1346C5.50768 11.6213 5.82962 12.0807 6.15766 12.5125C6.4857 12.9445 6.70284 13.2214 6.80908 13.343C6.91544 13.4648 6.99899 13.5559 7.05973 13.6167L7.28756 13.8357C7.43334 13.9818 7.64741 14.1567 7.92988 14.3604C8.2124 14.5643 8.52519 14.765 8.86838 14.9629C9.21165 15.1605 9.61098 15.3217 10.0666 15.4464C10.5222 15.5712 10.9656 15.6213 11.3969 15.5971H12.4447C12.6572 15.5787 12.8182 15.5118 12.9277 15.3963L12.9639 15.3506C12.9883 15.3142 13.0111 15.2578 13.0322 15.1819C13.0535 15.1059 13.0641 15.0221 13.0641 14.931C13.0579 14.6694 13.0778 14.4337 13.1232 14.2238C13.1686 14.014 13.2204 13.8558 13.2783 13.7493C13.3361 13.6429 13.4014 13.5531 13.4741 13.4803C13.5469 13.4073 13.5988 13.3631 13.6293 13.3479C13.6595 13.3326 13.6837 13.3222 13.7019 13.3159C13.8477 13.2673 14.0192 13.3144 14.2168 13.4575C14.4143 13.6005 14.5995 13.777 14.7727 13.9868C14.9458 14.1968 15.1539 14.4324 15.3968 14.6939C15.6399 14.9556 15.8524 15.1501 16.0346 15.278L16.2167 15.3875C16.3384 15.4606 16.4963 15.5275 16.6907 15.5884C16.8848 15.6492 17.0548 15.6644 17.2008 15.634L19.5333 15.5975C19.764 15.5975 19.9435 15.5593 20.0708 15.4834C20.1984 15.4073 20.2742 15.3236 20.2987 15.2324C20.3231 15.1412 20.3244 15.0377 20.3033 14.922C20.2817 14.8066 20.2604 14.7259 20.2392 14.6803Z" fill="#014170"/>
</g>
<defs>
<clipPath id="clip0">
<rect width="23" height="20" fill="white"/>
</clipPath>
</defs>
</svg>
